<?xml version="1.0" encoding="utf-8"?>
<!-- Generator: Adobe Illustrator 15.1.0, SVG Export Plug-In . SVG Version: 6.00 Build 0)  -->
<!DOCTYPE svg PUBLIC "-//W3C//DTD SVG 1.1//EN" "http://www.w3.org/Graphics/SVG/1.1/DTD/svg11.dtd">
<svg version="1.1" id="Layer_1" xmlns="http://www.w3.org/2000/svg" xmlns:xlink="http://www.w3.org/1999/xlink" x="0px" y="0px"
	 width="96.5px" height="174.169px" viewBox="0 0 96.5 174.169" enable-background="new 0 0 96.5 174.169" xml:space="preserve">
<g>
	<linearGradient id="SVGID_1_" gradientUnits="userSpaceOnUse" x1="48.2495" y1="0" x2="48.2495" y2="174.1694">
		<stop  offset="0" style="stop-color:#ED1C24"/>
		<stop  offset="1" style="stop-color:#F47920"/>
	</linearGradient>
	<path fill="url(#SVGID_1_)" d="M43.5,174.169c-40.333,0-43.5-51.834-43.5-51.834s9,14.334,13.167,14.334c1.833,0,4-2.334,4-7.834
		C17.167,118.167,4,100.502,4,82.668s6.333-27.834,16-37.501S44,20.5,44,9.667C44,5.667,43,0,43,0s31.666,23.501,31.666,52.501
		c0,15.333-3.832,23.333-3.832,25.833s0.832,4,1.666,4s3.333-1.5,6.166-10.166c2.834-8.667,2.168-14.5,2.168-14.5
		S96.5,86.002,96.5,121.502S75.834,174.169,43.5,174.169z"/>
	<linearGradient id="SVGID_2_" gradientUnits="userSpaceOnUse" x1="52.5" y1="27.3359" x2="52.5" y2="172.7651">
		<stop  offset="0" style="stop-color:#F47920"/>
		<stop  offset="1" style="stop-color:#FFC20E"/>
	</linearGradient>
	<path fill="url(#SVGID_2_)" d="M68.5,169.669c-10.678,3.305-25.167,5.5-37.5-1.667s-15.833-14-15.833-14S25.5,154.169,25.5,139.669
		s-7.833-25-7.833-44c0-19,22.834-36.833,27.834-47s4.5-21.333,4.5-21.333s18.667,18.333,18.667,29s-3.334,21.833-3.334,28.667
		s2.333,14.167,9,14.167c8.667,0,9.5-7.833,9.5-7.833s6,13.167,6,34.833S82.499,165.336,68.5,169.669z"/>
	<linearGradient id="SVGID_3_" gradientUnits="userSpaceOnUse" x1="56.585" y1="53.002" x2="56.585" y2="169.9946">
		<stop  offset="0" style="stop-color:#FFC20E"/>
		<stop  offset="1" style="stop-color:#FFF200"/>
	</linearGradient>
	<path fill="url(#SVGID_3_)" d="M70.668,168.835c-11.679,4.303-43.167-1.5-43.167-49.833c0-32,18.5-48.5,21.667-54s4.5-12,4.5-12
		s10.333,6.667,10.333,19.667s-5.667,17.832-5.667,31.666s8.166,16,15.5,16s9.334-5.666,9.334-5.666s2.5,3.833,2.5,18.833
		S83.334,164.168,70.668,168.835z"/>
	<linearGradient id="SVGID_4_" gradientUnits="userSpaceOnUse" x1="58.25" y1="168.7002" x2="58.25" y2="81.7104">
		<stop  offset="0" style="stop-color:#FFFFFF"/>
		<stop  offset="1" style="stop-color:#FFF200"/>
	</linearGradient>
	<path fill="url(#SVGID_4_)" d="M73.625,167.46c-5.878,2.888-38.375,5-38.375-45.625c0-32,21.25-40.125,21.25-40.125
		s-6.25,12-6.25,29.375s7,20.375,8.125,20.375c4,0,5.375-8,5.375-8s-0.25,18.5,8.5,18.5c5.25,0,6.625-7.875,6.625-7.875
		s2.375,5.375,2.375,13.375S80.75,163.96,73.625,167.46z"/>
</g>
</svg>
